<svg width="800" height="600" viewBox="0 0 800 600" fill="none" xmlns="http://www.w3.org/2000/svg">
<g clip-path="url(#clip0)">
<rect width="800" height="600" fill="white"/>
<path d="M718 450C718 456.776 716.57 462.862 714.305 467.216C712.015 471.62 709.028 474 706 474C702.972 474 699.985 471.62 697.695 467.216C695.43 462.862 694 456.776 694 450C694 443.224 695.43 437.138 697.695 432.784C699.985 428.38 702.972 426 706 426C709.028 426 712.015 428.38 714.305 432.784C716.57 437.138 718 443.224 718 450Z" fill="#FBE312" stroke="black" stroke-width="2"/>
<path d="M706 425H792V613" stroke="black" stroke-width="2"/>
<path d="M705 475H756V613" stroke="black" stroke-width="2"/>
<circle cx="85" cy="141" r="41" fill="#1BD0F8"/>
<circle cx="216.5" cy="147.5" r="34.5" fill="#1BD0F8"/>
<rect x="83" y="145" width="139" height="37" fill="#1BD0F8"/>
<circle cx="152.5" cy="130.5" r="51.5" fill="#1BD0F8"/>
<circle cx="643" cy="131" r="88" fill="#FBE312"/>
<circle cx="606.488" cy="108" r="8" fill="#FBE312"/>
<mask id="path-10-inside-1" fill="white">
<path fill-rule="evenodd" clip-rule="evenodd" d="M573 108C580.344 97.7093 592.383 91 605.989 91C619.595 91 631.634 97.7093 638.977 108C631.634 118.291 619.595 125 605.989 125C592.383 125 580.344 118.291 573 108Z"/>
</mask>
<path d="M573 108L571.372 106.838L570.543 108L571.372 109.162L573 108ZM638.977 108L640.605 109.162L641.435 108L640.605 106.838L638.977 108ZM574.628 109.162C581.613 99.3745 593.056 93 605.989 93V89C591.709 89 579.075 96.0442 571.372 106.838L574.628 109.162ZM605.989 93C618.921 93 630.365 99.3745 637.35 109.162L640.605 106.838C632.902 96.0442 620.268 89 605.989 89V93ZM637.35 106.838C630.365 116.625 618.921 123 605.989 123V127C620.268 127 632.902 119.956 640.605 109.162L637.35 106.838ZM605.989 123C593.056 123 581.613 116.625 574.628 106.838L571.372 109.162C579.075 119.956 591.709 127 605.989 127V123Z" fill="#FBE312" mask="url(#path-10-inside-1)"/>
<mask id="path-12-inside-2" fill="white">
<path fill-rule="evenodd" clip-rule="evenodd" d="M648 108C655.344 97.7093 667.383 91 680.989 91C694.595 91 706.634 97.7093 713.977 108C706.634 118.291 694.595 125 680.989 125C667.383 125 655.344 118.291 648 108Z"/>
</mask>
<path d="M648 108L646.372 106.838L645.543 108L646.372 109.162L648 108ZM713.977 108L715.605 109.162L716.435 108L715.605 106.838L713.977 108ZM649.628 109.162C656.613 99.3745 668.056 93 680.989 93V89C666.709 89 654.075 96.0442 646.372 106.838L649.628 109.162ZM680.989 93C693.921 93 705.365 99.3745 712.35 109.162L715.605 106.838C707.902 96.0442 695.268 89 680.989 89V93ZM712.35 106.838C705.365 116.625 693.921 123 680.989 123V127C695.268 127 707.902 119.956 715.605 109.162L712.35 106.838ZM680.989 123C668.056 123 656.613 116.625 649.628 106.838L646.372 109.162C654.075 119.956 666.709 127 680.989 127V123Z" fill="#FBE312" mask="url(#path-12-inside-2)"/>
<circle cx="681.488" cy="108" r="8" fill="#FBE312"/>
<path fill-rule="evenodd" clip-rule="evenodd" d="M692.412 157C688.712 169.46 667.998 179 643 179C618.002 179 597.288 169.46 593.588 157C593.201 158.304 593 159.64 593 161C593 175.359 615.386 187 643 187C670.614 187 693 175.359 693 161C693 159.64 692.799 158.304 692.412 157Z" fill="#FBE312"/>
</g>
<defs>
<clipPath id="clip0">
<rect width="800" height="600" fill="white"/>
</clipPath>
</defs>
</svg>
