<svg width="800" height="600" viewBox="0 0 800 600" fill="none" xmlns="http://www.w3.org/2000/svg">
<path d="M800 0H0V600H800V0Z" fill="white"/>
<path d="M668 317C668 323.776 666.57 329.862 664.305 334.216C662.015 338.62 659.028 341 656 341C652.972 341 649.985 338.62 647.695 334.216C645.43 329.862 644 323.776 644 317C644 310.224 645.43 304.138 647.695 299.784C649.985 295.38 652.972 293 656 293C659.028 293 662.015 295.38 664.305 299.784C666.57 304.138 668 310.224 668 317Z" fill="#FBE312" stroke="black" stroke-width="2"/>
<path d="M656 292H742V480" stroke="black" stroke-width="2"/>
<path d="M655 342H706V480" stroke="black" stroke-width="2"/>
<path d="M85 182C107.644 182 126 163.644 126 141C126 118.356 107.644 100 85 100C62.3563 100 44 118.356 44 141C44 163.644 62.3563 182 85 182Z" fill="#F0F0F0"/>
<path d="M216.5 182C235.554 182 251 166.554 251 147.5C251 128.446 235.554 113 216.5 113C197.446 113 182 128.446 182 147.5C182 166.554 197.446 182 216.5 182Z" fill="#F0F0F0"/>
<path d="M222 145H83V182H222V145Z" fill="#F0F0F0"/>
<path d="M152.5 182C180.943 182 204 158.943 204 130.5C204 102.057 180.943 79 152.5 79C124.057 79 101 102.057 101 130.5C101 158.943 124.057 182 152.5 182Z" fill="#F0F0F0"/>
<path d="M699 454C747.601 454 787 414.601 787 366C787 317.399 747.601 278 699 278C650.399 278 611 317.399 611 366C611 414.601 650.399 454 699 454Z" fill="#FCFCFC"/>
<path d="M114 386C66.1885 389.604 -1 429 -1 429V603H799V386C799 386 676.814 441.875 595 436C531.561 431.445 503.584 387.551 440 386C371.194 384.321 339.812 437.422 271 436C206.667 434.67 178.164 381.164 114 386Z" fill="#C2C2C2" stroke="black"/>
<rect width="800" height="600" fill="#6CE4FE" fill-opacity="0.48"/>
</svg>
