<svg width="146" height="89" viewBox="0 0 146 89" fill="none" xmlns="http://www.w3.org/2000/svg">
<path d="M3 7.69214C8.41 8.05214 13.82 8.52215 19.22 8.76215C21.688 8.86778 24.1601 8.69672 26.59 8.25215C28.6119 7.78929 30.69 7.62088 32.76 7.75215C33.5557 7.75215 34.3187 7.43607 34.8813 6.87346C35.4439 6.31085 35.76 5.5478 35.76 4.75215C35.7398 3.96288 35.4172 3.21152 34.8589 2.65324C34.3006 2.09496 33.5493 1.7724 32.76 1.75215C30.466 1.61693 28.1644 1.79864 25.92 2.29214C23.7125 2.70877 21.464 2.8665 19.22 2.76215C13.82 2.52215 8.41 2.05214 3 1.69214C2.20435 1.69214 1.4413 2.00822 0.878693 2.57083C0.316083 3.13344 0 3.89649 0 4.69214C0.0153604 5.48298 0.336377 6.23715 0.895691 6.79646C1.455 7.35578 2.20916 7.67678 3 7.69214Z" fill="#6CE4FE"/>
<path d="M0.769969 3.73205C6.20997 25.202 11.26 46.8221 17.77 68.0021C19.61 74.0021 21.59 79.932 23.77 85.802C23.9587 86.4272 24.3394 86.9771 24.8581 87.3737C25.3768 87.7704 26.0072 87.9937 26.66 88.012C34.76 87.932 42.8599 88.0587 50.9599 88.392C51.7556 88.392 52.5187 88.076 53.0813 87.5134C53.6439 86.9508 53.9599 86.1877 53.9599 85.392C53.9599 84.5964 53.6439 83.8333 53.0813 83.2707C52.5187 82.7081 51.7556 82.392 50.9599 82.392C42.8599 82.0654 34.76 81.9387 26.66 82.012L29.55 84.212C21.95 63.512 16.6899 42.062 11.2799 20.702L6.57997 2.13204C5.62997 -1.60796 -0.160042 -0.0179522 0.789958 3.73205H0.769969Z" fill="#6CE4FE"/>
<path d="M29.87 5.55198C32.79 20.992 36.4133 36.282 40.74 51.422C41.9533 55.6553 43.22 59.8653 44.54 64.052C44.7508 64.8198 45.258 65.4724 45.9501 65.8662C46.6421 66.26 47.4622 66.3628 48.23 66.152C48.9978 65.9411 49.6504 65.4339 50.0442 64.7419C50.438 64.0499 50.5408 63.2298 50.33 62.462C45.59 47.462 41.57 32.2686 38.27 16.882C37.3367 12.5886 36.4633 8.28198 35.65 3.96198C35.5591 3.56774 35.3895 3.19594 35.1513 2.86895C34.9131 2.54196 34.6111 2.26652 34.2637 2.05923C33.9163 1.85193 33.5305 1.71705 33.1296 1.6627C32.7287 1.60834 32.3209 1.63564 31.9309 1.74294C31.5408 1.85025 31.1764 2.03536 30.8597 2.28712C30.543 2.53887 30.2805 2.85208 30.088 3.20791C29.8955 3.56374 29.7769 3.95484 29.7395 4.35767C29.702 4.76051 29.7464 5.16675 29.87 5.55198Z" fill="#6CE4FE"/>
<path d="M49.31 66.0722C56.5586 57.105 63.3248 47.7584 69.58 38.0722C69.8099 37.7312 69.9672 37.3466 70.0422 36.9423C70.1173 36.538 70.1084 36.1226 70.0161 35.7219C69.9238 35.3212 69.7502 34.9437 69.5059 34.6129C69.2616 34.2821 68.9519 34.005 68.5961 33.799C68.2403 33.5929 67.8458 33.4622 67.4373 33.4149C67.0289 33.3676 66.6151 33.4048 66.2216 33.5242C65.8281 33.6436 65.4633 33.8427 65.1499 34.1089C64.8366 34.3752 64.5813 34.7031 64.4 35.0722C58.4471 44.329 52.0046 53.2617 45.1 61.8321C44.5592 62.4056 44.2581 63.1639 44.2581 63.9521C44.2581 64.7403 44.5592 65.4987 45.1 66.0722C45.6625 66.634 46.425 66.9495 47.22 66.9495C48.015 66.9495 48.7775 66.634 49.34 66.0722H49.31Z" fill="#6CE4FE"/>
<path d="M53.1 86.7421L64.81 71.4621C68.45 66.7121 72.69 62.0421 75.3 56.6221C75.6192 56.045 75.7466 55.3814 75.6639 54.7271C75.5812 54.0728 75.2927 53.4617 74.84 52.9821C74.3709 52.5119 73.759 52.2106 73.1002 52.1255C72.4415 52.0405 71.7732 52.1764 71.2 52.5121L70.4 53.0921C69.7303 53.5107 69.2457 54.1691 69.045 54.9329C68.8443 55.6967 68.9426 56.5084 69.32 57.2021C69.5185 57.5434 69.7824 57.8421 70.0965 58.0812C70.4107 58.3202 70.769 58.495 71.1508 58.5953C71.5326 58.6956 71.9305 58.7196 72.3216 58.6658C72.7127 58.6121 73.0894 58.4817 73.43 58.2821L74.23 57.6921L70.12 53.5921C67.51 59.0121 63.27 63.6821 59.63 68.4321L47.92 83.7121C46.92 85.0021 47.72 87.0721 48.99 87.8221C49.6832 88.202 50.4956 88.3017 51.2601 88.1008C52.0246 87.8999 52.683 87.4137 53.1 86.7421Z" fill="#6CE4FE"/>
<path d="M142.22 1.83202C136.82 2.19202 131.41 2.66202 126 2.91202C123.835 3.02839 121.664 2.86708 119.54 2.43203C117.281 1.85705 114.948 1.62778 112.62 1.75203C111.832 1.77468 111.082 2.09802 110.524 2.6558C109.966 3.21357 109.643 3.96355 109.62 4.75203C109.62 5.54768 109.936 6.31073 110.499 6.87334C111.061 7.43595 111.824 7.75203 112.62 7.75203C114.595 7.62966 116.577 7.82548 118.49 8.33202C120.96 8.83471 123.482 9.02953 126 8.91202C131.41 8.66202 136.82 8.19202 142.22 7.83202C143.01 7.8142 143.763 7.49242 144.322 6.93363C144.88 6.37483 145.202 5.62207 145.22 4.83202C145.22 4.03637 144.904 3.27332 144.341 2.71071C143.779 2.1481 143.016 1.83202 142.22 1.83202Z" fill="#6CE4FE"/>
<path d="M138.67 2.28202C133.23 23.752 128.18 45.372 121.67 66.552C119.83 72.552 117.85 78.472 115.67 84.352L118.56 82.152C110.46 82.072 102.363 82.1987 94.27 82.532C93.4792 82.5474 92.725 82.8684 92.1657 83.4277C91.6064 83.987 91.2854 84.7412 91.27 85.532C91.27 86.3277 91.5861 87.0907 92.1487 87.6533C92.7113 88.2159 93.4744 88.532 94.27 88.532C102.357 88.1987 110.453 88.072 118.56 88.152C119.213 88.1364 119.845 87.9155 120.365 87.5206C120.886 87.1257 121.269 86.5769 121.46 85.952C129.06 65.242 134.32 43.792 139.73 22.442L144.43 3.87202C145.38 0.132018 139.6 -1.46798 138.65 2.28202H138.67Z" fill="#6CE4FE"/>
<path d="M109.73 3.93205C106.79 19.422 103.07 34.772 98.73 49.932C97.51 54.1654 96.2367 58.382 94.91 62.582C93.74 66.272 99.54 67.852 100.7 64.172C105.44 49.1454 109.5 33.9154 112.88 18.482C113.82 14.1687 114.7 9.85205 115.52 5.53205C115.711 4.76634 115.6 3.95666 115.211 3.27006C114.822 2.58346 114.185 2.07231 113.43 1.84205C113.05 1.73735 112.653 1.70863 112.261 1.75753C111.87 1.80643 111.492 1.932 111.15 2.12704C110.807 2.32208 110.506 2.58278 110.264 2.89422C110.022 3.20566 109.844 3.56171 109.74 3.94204L109.73 3.93205Z" fill="#6CE4FE"/>
<path d="M100.16 61.9321C93.2454 53.3656 86.7929 44.4362 80.83 35.1821C80.4166 34.5065 79.7573 34.0175 78.9908 33.818C78.2243 33.6184 77.4103 33.7238 76.72 34.1121C76.0335 34.5129 75.5341 35.1698 75.3316 35.9386C75.1291 36.7073 75.24 37.525 75.64 38.2121C81.8954 47.8982 88.6616 57.2448 95.91 66.2121C96.1887 66.4917 96.5199 66.7137 96.8845 66.8651C97.2492 67.0165 97.6401 67.0944 98.035 67.0944C98.4298 67.0944 98.8208 67.0165 99.1854 66.8651C99.5501 66.7137 99.8813 66.4917 100.16 66.2121C100.704 65.6381 101.007 64.8776 101.007 64.0871C101.007 63.2965 100.704 62.536 100.16 61.9621V61.9321Z" fill="#6CE4FE"/>
<path d="M97.34 83.862L85.63 68.582C81.99 63.832 77.74 59.162 75.13 53.732L71.03 57.842L71.83 58.422C72.517 58.8219 73.3347 58.9328 74.1035 58.7303C74.8722 58.5278 75.5291 58.0285 75.93 57.342C76.3151 56.6526 76.4189 55.841 76.2195 55.0768C76.02 54.3127 75.5329 53.6553 74.86 53.242L74.06 52.652C73.4868 52.3163 72.8185 52.1804 72.1597 52.2654C71.501 52.3505 70.8891 52.6517 70.42 53.122C69.9684 53.602 69.6799 54.2123 69.5955 54.8659C69.5111 55.5195 69.6352 56.183 69.95 56.762C72.56 62.182 76.81 66.862 80.45 71.602L92.16 86.932C92.58 87.5974 93.2373 88.0781 93.9986 88.2768C94.76 88.4755 95.5684 88.3773 96.26 88.002C97.53 87.262 98.33 85.192 97.34 83.902V83.862Z" fill="#6CE4FE"/>
<path d="M66.1 40.062L78.1 39.782C78.8956 39.782 79.6587 39.4659 80.2213 38.9033C80.7839 38.3407 81.1 37.5776 81.1 36.782C81.1 35.9863 80.7839 35.2233 80.2213 34.6606C79.6587 34.098 78.8956 33.782 78.1 33.782L66.1 34.062C65.3043 34.062 64.5413 34.378 63.9787 34.9406C63.4161 35.5033 63.1 36.2663 63.1 37.062C63.1 37.8576 63.4161 38.6207 63.9787 39.1833C64.5413 39.7459 65.3043 40.062 66.1 40.062Z" fill="#6CE4FE"/>
</svg>
